<?xml version="1.0" encoding="iso-8859-1"?>
<!-- Generator: Adobe Illustrator 18.0.0, SVG Export Plug-In . SVG Version: 6.00 Build 0)  -->
<!DOCTYPE svg PUBLIC "-//W3C//DTD SVG 1.1//EN" "http://www.w3.org/Graphics/SVG/1.1/DTD/svg11.dtd">
<svg version="1.1" id="Capa_1" xmlns="http://www.w3.org/2000/svg" xmlns:xlink="http://www.w3.org/1999/xlink" x="0px" y="0px"
	 viewBox="0 0 448.751 448.751" style="enable-background:new 0 0 448.751 448.751;" xml:space="preserve">
<g>
	<g>
		<g>
			<g>
				<g>
					<path d="M133.936,229.374c-1.32,0-2.611-0.53-3.541-1.46c-0.93-0.94-1.459-2.221-1.459-3.54c0-1.311,0.529-2.601,1.459-3.54
						c0.93-0.931,2.221-1.46,3.541-1.46c1.309,0,2.6,0.529,3.529,1.46c0.93,0.93,1.471,2.22,1.471,3.54
						c0,1.319-0.541,2.609-1.471,3.54C136.536,228.844,135.245,229.374,133.936,229.374z"/>
				</g>
			</g>
			<g>
				<g>
					<path d="M93.696,229.374c-1.32,0-2.61-0.53-3.541-1.46c-0.93-0.931-1.459-2.221-1.459-3.54c0-1.32,0.529-2.61,1.459-3.54
						c0.931-0.931,2.221-1.46,3.541-1.46c1.31,0,2.6,0.529,3.529,1.46c0.93,0.93,1.471,2.22,1.471,3.54
						c0,1.319-0.541,2.609-1.471,3.54C96.296,228.844,95.006,229.374,93.696,229.374z"/>
				</g>
			</g>
			<g>
				<g>
					<path d="M53.456,229.374c-1.32,0-2.61-0.53-3.54-1.46c-0.931-0.931-1.46-2.221-1.46-3.54c0-1.32,0.529-2.61,1.46-3.54
						c0.93-0.931,2.22-1.46,3.54-1.46c1.309,0,2.6,0.529,3.529,1.46c0.931,0.93,1.471,2.22,1.471,3.54
						c0,1.319-0.54,2.609-1.471,3.54C56.056,228.844,54.766,229.374,53.456,229.374z"/>
				</g>
			</g>
		</g>
		<g>
			<g>
				<g>
					<path d="M212.405,229.374c-1.319,0-2.609-0.53-3.539-1.46c-0.93-0.94-1.461-2.221-1.461-3.54c0-1.311,0.531-2.601,1.461-3.54
						c0.93-0.931,2.22-1.46,3.539-1.46c1.311,0,2.601,0.529,3.531,1.46c0.93,0.93,1.469,2.22,1.469,3.54
						c0,1.319-0.539,2.609-1.469,3.54C215.006,228.844,213.716,229.374,212.405,229.374z"/>
				</g>
			</g>
		</g>
		<g>
			<g>
				<g>
					<path d="M358.126,229.374c-1.32,0-2.61-0.53-3.54-1.46c-0.931-0.931-1.47-2.221-1.47-3.54c0-1.311,0.539-2.601,1.47-3.54
						c0.93-0.931,2.22-1.46,3.54-1.46c1.31,0,2.6,0.529,3.529,1.46c0.931,0.939,1.471,2.229,1.471,3.54
						c0,1.319-0.54,2.609-1.471,3.54C360.726,228.844,359.436,229.374,358.126,229.374z"/>
				</g>
			</g>
		</g>
		<path d="M443.751,183.966h-93.343v-4.486c0-2.762-2.239-5-5-5h-30.652c-2.761,0-5,2.238-5,5v4.486h-19.377v-4.486
			c0-2.762-2.239-5-5-5H163.371c-2.761,0-5,2.238-5,5v4.486H5c-2.761,0-5,2.238-5,5v70.818c0,2.762,2.239,5,5,5h153.371v4.486
			c0,2.762,2.239,5,5,5h122.008c2.761,0,5-2.238,5-5v-4.486h19.377v4.486c0,2.762,2.239,5,5,5h30.652c2.761,0,5-2.238,5-5v-4.486
			h93.343c2.762,0,5-2.238,5-5v-70.818C448.751,186.205,446.513,183.966,443.751,183.966z M10,254.785v-60.818h148.371v60.818H10z
			 M280.379,219.376h-7.729V201.8c0-2.762-2.238-5-5-5h-86.548c-2.761,0-5,2.238-5,5v45.15c0,2.762,2.239,5,5,5h86.548
			c2.762,0,5-2.238,5-5v-17.575h7.729v34.895H168.371V184.48h112.008V219.376z M252.6,229.376h10.05v12.575h-76.548V206.8h76.548
			v12.575H252.6c-2.761,0-5,2.238-5,5S249.839,229.376,252.6,229.376z M309.756,254.785h-19.377v-60.818h19.377V254.785z
			 M340.408,264.271h-20.652V184.48h20.652V264.271z M386.657,254.785h-36.249v-60.818h36.249c11.082,0,20.443,13.926,20.443,30.409
			S397.739,254.785,386.657,254.785z M438.751,254.785h-32.082c6.387-7.41,10.432-18.291,10.432-30.409
			c0-12.115-4.04-22.998-10.424-30.409h32.074V254.785z"/>
	</g>
</g>
<g>
</g>
<g>
</g>
<g>
</g>
<g>
</g>
<g>
</g>
<g>
</g>
<g>
</g>
<g>
</g>
<g>
</g>
<g>
</g>
<g>
</g>
<g>
</g>
<g>
</g>
<g>
</g>
<g>
</g>
</svg>
