<?xml version="1.0" encoding="UTF-8"?>
<!DOCTYPE svg PUBLIC "-//W3C//DTD SVG 1.1//EN" "http://www.w3.org/Graphics/SVG/1.1/DTD/svg11.dtd">
<!-- Creator: CorelDRAW 2020 (64 Bit) -->
<?xml-stylesheet href="t-shirt.css" type="text/css"?>
<svg xmlns="http://www.w3.org/2000/svg" xml:space="preserve" width="210mm" height="209.641mm" version="1.1" style="shape-rendering:geometricPrecision; text-rendering:geometricPrecision; image-rendering:optimizeQuality; fill-rule:evenodd; clip-rule:evenodd"
viewBox="0 0 210 210"
 xmlns:xlink="http://www.w3.org/1999/xlink"
 xmlns:xodm="http://www.corel.com/coreldraw/odm/2003">
 <g id="Camada_x0020_1">
  <metadata id="CorelCorpID_0Corel-Layer"/>
  <path class="fil0" d="M209 56c0,0 -29,-36 -33,-40 -1,-1 -19,-17 -46,-17 -1,0 -3,1 -3,3 0,0 0,1 0,2 0,0 0,0 0,0 -1,1 -9,4 -23,4 -14,0 -21,-2 -23,-4 0,-1 0,-2 0,-2 0,-1 -1,-3 -3,-3 -27,0 -45,16 -46,17 -2,1 -33,40 -33,40 -1,1 -1,2 0,3l25 27c1,1 1,1 2,1 0,0 1,0 1,0l9 -3 0 123c0,1 1,3 3,3l130 0c1,0 3,-1 3,-3l0 -123 9 3c0,0 1,0 1,0 1,0 1,0 2,-1l25 -27c1,-1 1,-2 0,-3zm-172 5l0 18 -9 3 -23 -24 29 -34c3,9 3,29 3,37zm68 -48c2,0 14,0 21,-3 -2,7 -8,17 -21,17 -14,0 -19,-10 -21,-17 8,3 20,3 21,3zm62 48l0 143 -125 0 0 -143c0,-3 0,-31 -4,-42 4,-3 19,-13 39,-14 0,3 1,7 4,12 3,7 10,15 24,15 0,0 0,0 0,0 0,0 0,0 0,0 0,0 0,0 0,0 0,0 0,0 0,0 14,0 21,-8 24,-15 2,-5 3,-9 4,-12 20,1 34,11 39,14 -4,11 -4,38 -4,42zm14 21l-9 -3 0 -18c0,-8 0,-28 3,-37l29 34 -23 24z"/>
 </g>
</svg>
